<svg width="102" height="13" viewBox="0 0 102 13" fill="none" xmlns="http://www.w3.org/2000/svg">
<path d="M7.69332 2.848C6.69065 2.32533 5.79999 2.064 5.02132 2.064C4.44532 2.064 3.98665 2.192 3.64532 2.448C3.31465 2.704 3.14932 3.056 3.14932 3.504C3.14932 3.94133 3.35732 4.30933 3.77332 4.608C4.19999 4.896 4.79199 5.184 5.54932 5.472C6.12532 5.67467 6.61599 5.90933 7.02132 6.176C7.43732 6.432 7.77865 6.784 8.04532 7.232C8.31199 7.68 8.44532 8.24533 8.44532 8.928C8.44532 9.54667 8.29065 10.1067 7.98132 10.608C7.67199 11.1093 7.22399 11.5093 6.63732 11.808C6.05065 12.1067 5.35732 12.256 4.55732 12.256C3.85332 12.256 3.15999 12.1493 2.47732 11.936C1.79465 11.712 1.18665 11.408 0.65332 11.024L1.48532 9.568C1.87999 9.86667 2.34399 10.1173 2.87732 10.32C3.42132 10.512 3.92265 10.608 4.38132 10.608C4.94665 10.608 5.44265 10.4747 5.86932 10.208C6.29599 9.93067 6.50932 9.50933 6.50932 8.944C6.50932 8.496 6.32799 8.12267 5.96532 7.824C5.61332 7.52533 5.11732 7.25333 4.47732 7.008C3.81599 6.76267 3.26665 6.52267 2.82932 6.288C2.39199 6.04267 2.01332 5.70667 1.69332 5.28C1.38399 4.84267 1.22932 4.29867 1.22932 3.648C1.22932 2.69867 1.54932 1.936 2.18932 1.36C2.83999 0.773333 3.69332 0.458666 4.74932 0.415999C5.51732 0.415999 6.18932 0.506666 6.76532 0.688C7.35199 0.858666 7.89599 1.104 8.39732 1.424L7.69332 2.848Z" fill="white"/>
<path d="M14.1898 0.48C15.5125 0.48 16.5472 0.810666 17.2938 1.472C18.0405 2.13333 18.4138 3.05067 18.4138 4.224C18.4138 4.896 18.2805 5.52533 18.0138 6.112C17.7472 6.688 17.3152 7.16267 16.7178 7.536C16.1312 7.89867 15.3738 8.08 14.4458 8.08H12.7658V12.128H10.8938V0.48H14.1898ZM14.4458 6.288C14.9578 6.288 15.3685 6.18133 15.6778 5.968C15.9978 5.744 16.2218 5.47733 16.3498 5.168C16.4885 4.848 16.5578 4.544 16.5578 4.256C16.5578 3.76533 16.3978 3.312 16.0778 2.896C15.7685 2.48 15.2405 2.272 14.4938 2.272H12.7658V6.288H14.4458Z" fill="white"/>
<path d="M28.4031 0.48V2.272H22.5471V5.376H27.7631V7.168H22.5471V10.336H28.6271V12.128H20.6751V0.48H28.4031Z" fill="white"/>
<path d="M54.0913 0.0640001V12.128H52.2353V5.392L48.1553 11.184H48.1233L44.1393 5.664V12.128H42.3313V0.0640001H42.3473L48.1553 8.288L54.0593 0.0640001H54.0913Z" fill="white"/>
<path d="M63.2684 9.392H59.0284L57.9084 12.128H56.0684L61.2204 0H61.3324L66.4844 12.128H64.3404L63.2684 9.392ZM62.6444 7.792L61.1884 4.112L59.6844 7.792H62.6444Z" fill="white"/>
<path d="M75.0799 12.128L72.2159 7.728L69.6559 12.128H67.3519L71.1759 6.128L67.5119 0.48H69.8799L72.6159 4.688L75.0799 0.48H77.3359L73.6399 6.24L77.4799 12.128H75.0799Z" fill="white"/>
<path d="M88.6681 12.128L86.0441 8.08H84.1721V12.128H82.3001V0.48H85.5801C86.8814 0.48 87.9214 0.810666 88.7001 1.472C89.4894 2.13333 89.8841 3.05067 89.8841 4.224C89.8841 4.93867 89.7294 5.60533 89.4201 6.224C89.1214 6.832 88.6467 7.30133 87.9961 7.632L90.8281 12.128H88.6681ZM84.1721 6.288H85.8361C86.5827 6.288 87.1214 6.08533 87.4521 5.68C87.7934 5.264 87.9641 4.8 87.9641 4.288C87.9641 3.98933 87.9001 3.69067 87.7721 3.392C87.6441 3.08267 87.4254 2.82133 87.1161 2.608C86.8067 2.384 86.4014 2.272 85.9001 2.272H84.1721V6.288Z" fill="white"/>
<path d="M94.6988 7.936C94.6988 8.384 94.8162 8.8 95.0508 9.184C95.2855 9.568 95.6055 9.87733 96.0108 10.112C96.4162 10.336 96.8588 10.448 97.3388 10.448C97.8402 10.448 98.2935 10.336 98.6988 10.112C99.1148 9.888 99.4402 9.584 99.6748 9.2C99.9095 8.816 100.027 8.39467 100.027 7.936V0.48H101.867V7.984C101.867 8.816 101.664 9.55733 101.259 10.208C100.864 10.848 100.32 11.3493 99.6268 11.712C98.9335 12.0747 98.1708 12.256 97.3388 12.256C96.5068 12.256 95.7442 12.0747 95.0508 11.712C94.3681 11.3493 93.8295 10.848 93.4348 10.208C93.0402 9.55733 92.8428 8.816 92.8428 7.984V0.48H94.6988V7.936Z" fill="white"/>
<path d="M39.8463 11.216C39.505 11.4613 39.0303 11.696 38.4223 11.92C37.825 12.144 37.169 12.256 36.4543 12.256C35.249 12.256 34.193 11.9947 33.2863 11.472C32.3903 10.9387 31.697 10.2293 31.2063 9.34401C30.7263 8.44801 30.4863 7.46667 30.4863 6.40001C30.4863 5.23734 30.7263 4.19734 31.2063 3.28001C31.697 2.36267 32.3743 1.64801 33.2383 1.13601C34.113 0.613338 35.105 0.352005 36.2143 0.352005C36.897 0.352005 37.5263 0.442672 38.1023 0.624005C38.689 0.805339 39.2063 1.03467 39.6543 1.31201L38.9183 3.05601C38.0543 2.44801 37.1743 2.14401 36.2783 2.14401C35.5957 2.14401 34.9557 2.33067 34.3583 2.70401C33.7717 3.06667 33.3023 3.56801 32.9503 4.20801C32.5983 4.83734 32.4223 5.53067 32.4223 6.28801C32.4223 7.08801 32.5823 7.80801 32.9023 8.44801C33.233 9.07734 33.697 9.57334 34.2943 9.93601C34.9023 10.288 35.601 10.464 36.3903 10.464C36.9557 10.464 37.4623 10.3787 37.9103 10.208C38.369 10.0373 38.753 9.81867 39.0623 9.55201L39.8463 11.216Z" fill="#FFCD4E"/>
<path d="M78.3973 11.152C78.3973 10.8853 78.4933 10.656 78.6853 10.464C78.888 10.272 79.1173 10.176 79.3733 10.176C79.608 10.176 79.8213 10.272 80.0133 10.464C80.216 10.656 80.3173 10.8853 80.3173 11.152C80.3173 11.4293 80.216 11.664 80.0133 11.856C79.8213 12.0373 79.608 12.128 79.3733 12.128C79.1173 12.128 78.888 12.0373 78.6853 11.856C78.4933 11.6747 78.3973 11.44 78.3973 11.152Z" fill="#FFCD4E"/>
</svg>
